<?xml version="1.0" encoding="utf-8"?>
<!-- Generator: Adobe Illustrator 16.0.0, SVG Export Plug-In . SVG Version: 6.00 Build 0)  -->
<!DOCTYPE svg PUBLIC "-//W3C//DTD SVG 1.1//EN" "http://www.w3.org/Graphics/SVG/1.1/DTD/svg11.dtd">
<svg version="1.1" id="Layer_1" xmlns="http://www.w3.org/2000/svg" xmlns:xlink="http://www.w3.org/1999/xlink" x="0px" y="0px"
	 width="141.73px" height="141.73px" viewBox="0 0 141.73 141.73" enable-background="new 0 0 141.73 141.73" xml:space="preserve">
<g>
	<path fill="#2D3E50" d="M17.215,113.732c-0.104-2.208-0.276-5.21-0.207-7.694h-0.103c-0.414,2.484-1.035,5.348-1.484,7.142
		l-2.001,8.314h-3.208l-1.932-8.176c-0.448-1.863-1.069-4.762-1.414-7.28H6.762c-0.069,2.519-0.207,5.451-0.345,7.763l-0.379,8.073
		H2.139l1.69-23.253H8.59l1.863,8.418c0.655,2.933,1.242,5.52,1.656,8.142h0.069c0.345-2.587,0.862-5.209,1.483-8.142l1.829-8.418
		h4.761l1.415,23.253h-4.037L17.215,113.732z"/>
	<path fill="#2D3E50" d="M36.875,113.387c0,7.038-3.898,8.764-6.451,8.764c-4.037,0-6.452-3.175-6.452-8.66
		c0-6.071,3.174-8.763,6.521-8.763C34.461,104.728,36.875,108.074,36.875,113.387z M28.458,113.387c0,2.898,0.449,5.313,2.07,5.313
		c1.449,0,1.829-2.829,1.829-5.313c0-2.312-0.38-5.244-1.898-5.244C28.803,108.143,28.458,111.075,28.458,113.387z"/>
	<path fill="#2D3E50" d="M39.253,121.874c0.069-1.483,0.138-3.381,0.138-5.003V98h4.52v8.694h0.069
		c0.828-1.208,1.897-1.967,3.519-1.967c3.277,0,4.761,3.691,4.761,8.245c0,5.899-2.346,9.178-5.485,9.178
		c-1.415,0-2.415-0.587-3.312-2.277h-0.104l-0.242,2.001H39.253z M43.911,115.837c0,0.414,0.069,0.827,0.172,1.069
		c0.379,1.207,1,1.553,1.552,1.553c1.518,0,2.139-1.898,2.139-5.141c0-2.898-0.655-4.796-2.173-4.796
		c-0.69,0-1.277,0.725-1.518,1.553c-0.104,0.275-0.172,0.725-0.172,1.035V115.837z"/>
	<path fill="#2D3E50" d="M59.364,100.519c0.035,1.449-1,2.449-2.38,2.449c-1.242,0-2.277-1-2.243-2.449
		c-0.034-1.519,1.07-2.449,2.312-2.449C58.363,98.069,59.364,99,59.364,100.519z M54.844,121.874v-16.87h4.52v16.87H54.844z"/>
	<path fill="#28678F" d="M67.47,98.621v9.314h4.727v-9.314h4.52v23.253h-4.52v-9.729H67.47v9.729h-4.52V98.621H67.47z"/>
	<path fill="#28678F" d="M83.889,115.043c0.069,2.622,1.587,3.588,3.588,3.588c1.276,0,2.415-0.275,3.208-0.552l0.621,3.243
		c-1.173,0.448-2.932,0.759-4.657,0.759c-4.589,0-7.106-3.036-7.106-8.314c0-5.658,2.932-9.039,6.762-9.039
		c3.622,0,5.727,2.863,5.727,7.97c0,1.207-0.034,1.862-0.138,2.346H83.889z M87.925,111.869c0-2.174-0.552-3.864-1.897-3.864
		c-1.483,0-2.069,2.174-2.104,3.864H87.925z"/>
	<path fill="#28678F" d="M102.136,121.874l-0.241-1.656h-0.069c-0.932,1.312-2.242,1.933-3.726,1.933
		c-2.554,0-4.451-2.14-4.451-5.141c0-4.416,3.898-6.245,7.729-6.279v-0.38c0-1.311-0.794-2.276-2.381-2.276
		c-1.346,0-2.449,0.345-3.45,0.966l-0.828-3.036c0.932-0.552,2.898-1.276,5.244-1.276c5.141,0,5.969,3.588,5.969,7.004v6.278
		c0,1.346,0.069,2.726,0.276,3.864H102.136z M101.515,113.663c-1.518,0.034-3.588,0.518-3.588,2.863c0,1.69,0.932,2.312,1.621,2.312
		c0.725,0,1.553-0.448,1.863-1.449c0.069-0.241,0.104-0.518,0.104-0.793V113.663z"/>
	<path fill="#28678F" d="M109.137,98h4.52v23.874h-4.52V98z"/>
	<path fill="#28678F" d="M122.211,100.449v4.555h3.312v3.208h-3.312v7.693c0,1.967,0.827,2.45,1.725,2.45
		c0.448,0,0.794-0.035,1.173-0.104l0.035,3.519c-0.621,0.173-1.553,0.311-2.761,0.311c-1.311,0-2.449-0.311-3.243-1.069
		c-0.931-0.897-1.448-2.174-1.448-4.83v-7.97h-2.001v-3.208h2.001v-3.485L122.211,100.449z"/>
	<path fill="#28678F" d="M127.625,98h4.52v8.763h0.069c0.379-0.586,0.896-1.069,1.449-1.448c0.655-0.38,1.448-0.587,2.276-0.587
		c3.105,0,4.313,2.622,4.313,6.9v10.246h-4.52v-10.246c0-1.656-0.311-3.105-1.656-3.105c-0.759,0-1.414,0.448-1.759,1.587
		c-0.069,0.276-0.173,0.897-0.173,1.276v10.488h-4.52V98z"/>
</g>
<path fill="#B85662" d="M126.831,68.529c-5.486-5.42-12.357-9.125-19.869-10.724c-1.019-0.21-2.028,0.438-2.247,1.463
	c-0.213,1.026,0.44,2.028,1.465,2.244c6.161,1.313,11.839,4.186,16.55,8.366c-6.677,5.935-15.271,9.185-24.424,9.194l0,0
	c-8.294,0.004-16.126-2.657-22.5-7.563c8.907-1.096,17.188-5.125,23.714-11.624c7.661-7.637,11.912-17.699,11.962-28.35
	c0-0.503-0.198-0.99-0.554-1.348c-0.358-0.352-0.845-0.553-1.342-0.552c0,0-0.004,0.002-0.007-0.001
	c-8.028,0.049-15.757,2.453-22.36,6.95c-0.859,0.589-1.089,1.772-0.502,2.635c0.589,0.863,1.769,1.089,2.638,0.501
	c5.441-3.706,11.718-5.845,18.275-6.231c-0.524,8.906-4.311,17.263-10.785,23.713c-5.869,5.842-13.298,9.488-21.289,10.518
	c12.383-15.816,11.44-38.82-2.897-53.297c-0.354-0.358-0.839-0.558-1.346-0.558c-0.505,0.005-0.992,0.2-1.35,0.562
	C64.375,20.09,60.621,27.193,59.1,34.97c-0.195,1.03,0.48,2.021,1.506,2.224c1.027,0.204,2.021-0.475,2.223-1.497
	c1.242-6.401,4.165-12.297,8.486-17.169c11.631,13.102,12.077,32.866,1.384,46.681c-2.435-19.781-19.252-35.324-39.491-35.524
	c-0.518,0.002-0.988,0.199-1.35,0.554c-0.358,0.354-0.563,0.842-0.563,1.346l0.007,3.709c0,0.063,0.003,0.129,0.007,0.191
	c0.696,6.776,3.138,13.311,7.042,18.894c0.602,0.852,1.781,1.063,2.641,0.461c0.858-0.599,1.064-1.777,0.462-2.637
	c-3.521-5.027-5.726-10.913-6.367-17.009V33.55c17.396,1.094,31.622,14.709,33.832,31.914c-7.025-5.494-15.628-8.483-24.682-8.496
	c-0.031-0.003-0.055,0-0.086,0c-10.594,0.005-20.593,4.085-28.143,11.495c-0.362,0.352-0.567,0.835-0.567,1.347
	c-0.003,0.5,0.195,0.988,0.56,1.35l2.624,2.616c0.038,0.045,0.083,0.086,0.135,0.124c7.133,5.81,16.133,9,25.363,8.996
	c0.028,0,0.052-0.003,0.08,0l0,0c7.205-0.014,14.268-1.956,20.433-5.612c0.897-0.539,1.193-1.701,0.665-2.6
	c-0.54-0.896-1.702-1.193-2.599-0.661c-5.581,3.313-11.972,5.07-18.502,5.08l0,0h-0.087c-0.01-0.003-0.014,0-0.023,0
	c-8.312,0-16.418-2.866-22.858-8.079l-1.162-1.16c6.648-5.883,15.124-9.098,24.086-9.103c0.028-0.002,0.049-0.002,0.08-0.002
	c9.631,0.012,18.704,3.746,25.544,10.505c7.574,7.484,17.711,11.604,28.528,11.597c0-0.004,0-0.004,0.008,0
	c10.823-0.007,20.955-4.145,28.518-11.635c0.361-0.361,0.566-0.842,0.56-1.351C127.397,69.371,127.192,68.886,126.831,68.529z"/>
</svg>
